<svg width="32" height="32" viewBox="0 0 32 32" fill="none" xmlns="http://www.w3.org/2000/svg">
<rect width="32" height="32" rx="4" fill="#16A34A"/>
<path d="M13.8262 11.3204L19.5774 8L21.4991 11.3288L13.8262 11.3204Z" stroke="white" stroke-width="1.5" stroke-linecap="round" stroke-linejoin="round"/>
<path d="M8 12.1666C8 11.9456 8.0878 11.7337 8.24408 11.5774C8.40036 11.4211 8.61232 11.3333 8.83333 11.3333H23.8333C24.0543 11.3333 24.2663 11.4211 24.4226 11.5774C24.5789 11.7337 24.6667 11.9456 24.6667 12.1666V23.8333C24.6667 24.0543 24.5789 24.2663 24.4226 24.4226C24.2663 24.5788 24.0543 24.6666 23.8333 24.6666H8.83333C8.61232 24.6666 8.40036 24.5788 8.24408 24.4226C8.0878 24.2663 8 24.0543 8 23.8333V12.1666Z" stroke="white" stroke-width="1.5" stroke-linejoin="round"/>
<path d="M21.0215 20.0834H24.6673V15.9167H21.0215C19.8132 15.9167 18.834 16.8496 18.834 18C18.834 19.1504 19.8132 20.0834 21.0215 20.0834Z" stroke="white" stroke-width="1.5" stroke-linejoin="round"/>
<path d="M24.666 13.2083V23.2083" stroke="white" stroke-width="1.5" stroke-linecap="round"/>
</svg>
