<svg width="32" height="32" viewBox="0 0 32 32" fill="none" xmlns="http://www.w3.org/2000/svg">
<rect width="32" height="32" rx="4" fill="#16A34A"/>
<path d="M9.545 18.793L7.773 17.018L6 18.793M21.955 14.214L23.727 15.99L25.5 14.214" stroke="white" stroke-width="1.5" stroke-linecap="round" stroke-linejoin="round"/>
<path d="M23.7274 15.99C23.7274 13.87 22.8874 11.839 21.3914 10.34C20.6512 9.59826 19.7719 9.00979 18.804 8.60826C17.836 8.20674 16.7984 8.00004 15.7504 8C14.7325 7.99919 13.724 8.19512 12.7804 8.577C11.7271 8.99934 10.776 9.64148 9.99048 10.4606C9.205 11.2797 8.60327 12.2569 8.22544 13.327M7.77344 17.017C7.77497 18.8716 8.42079 20.668 9.60044 22.099C10.7788 23.5283 12.4182 24.5025 14.237 24.8542C16.0557 25.2059 17.9402 24.913 19.5664 24.026C21.1926 23.1372 22.4598 21.7113 23.1514 19.992" stroke="white" stroke-width="1.5" stroke-linecap="round" stroke-linejoin="round"/>
<path d="M13.3301 18.465C13.3821 19.0587 13.6645 19.6083 14.1169 19.9964C14.5692 20.3844 15.1554 20.5799 15.7501 20.541C17.7021 20.541 18.1701 19.418 18.1701 18.465C18.1701 17.512 17.3631 16.502 15.7501 16.502C14.1371 16.502 13.3301 15.864 13.3301 14.564C13.3525 14.1135 13.5115 13.6806 13.7861 13.3227C14.0607 12.9649 14.4377 12.6992 14.8671 12.561C15.1521 12.469 15.4521 12.436 15.7501 12.464C16.3455 12.4381 16.9282 12.6414 17.3783 13.032C17.8285 13.4226 18.1118 13.9709 18.1701 14.564M15.7501 21.751V20.7M15.7501 11.25V12.46" stroke="white" stroke-width="1.5" stroke-linecap="round" stroke-linejoin="round"/>
</svg>
