<svg width="32" height="32" viewBox="0 0 32 32" fill="none" xmlns="http://www.w3.org/2000/svg">
<rect width="32" height="32" rx="4" fill="#16A34A"/>
<path d="M7 6H10.1579C10.4526 6 10.7158 6.11579 10.9053 6.30526L13.0947 8.50526L13.9368 7.67368C14.3684 7.26316 14.8947 7.05263 15.4211 7.05263H21.7368C22.2632 7.05263 22.7895 7.26316 23.2211 7.67368L24.2737 8.72632C24.6842 9.1579 24.8947 9.68421 24.8947 10.2105V23.8947C24.8947 24.4531 24.6729 24.9886 24.2781 25.3834C23.8833 25.7782 23.3478 26 22.7895 26H12.2632C11.7048 26 11.1693 25.7782 10.7745 25.3834C10.3797 24.9886 10.1579 24.4531 10.1579 23.8947V12.3158C10.1579 11.7895 10.3684 11.2632 10.7789 10.8316L11.6105 9.98947L9.72632 8.10526H7V6ZM15.4211 9.15789V11.2632H21.7368V9.15789H15.4211ZM15.8526 15.4737L13.7474 13.3684H12.2632V14.8526L14.3684 16.9579V20.3053L12.2632 22.4105V23.8947H13.7474L15.8526 21.7895H19.2L21.3053 23.8947H22.7895V22.4105L20.6842 20.3053V16.9579L22.7895 14.8526V13.3684H21.3053L19.2 15.4737H15.8526ZM16.4737 17.5789H18.5789V19.6842H16.4737V17.5789Z" fill="white"/>
</svg>
