<svg width="100" height="100" viewBox="0 0 100 100" fill="none" xmlns="http://www.w3.org/2000/svg">
<circle cx="50" cy="50" r="50" fill="#222222"/>
<path d="M54.5244 28.125L50.9987 46.6493L63.7713 46.6923L46.3854 71.8047L49.9112 51.425L37.1393 51.3805L54.5244 28.125ZM54.5268 25.0001C54.4424 25.0001 54.3581 25.0032 54.2753 25.0094C53.7237 25.054 53.3581 25.2383 52.9245 25.5297C52.6804 25.6925 52.4603 25.8887 52.2706 26.1125C52.2136 26.1797 52.1599 26.2496 52.1096 26.3219L34.5995 49.4961C33.9081 50.4438 33.8065 51.6946 34.3377 52.7399C34.8682 53.7853 35.9409 54.4478 37.1166 54.4563L46.137 54.522L43.301 71.2306C43.0315 72.6665 43.7971 74.0978 45.1448 74.6743C45.5364 74.8426 45.9583 74.9293 46.3846 74.929C47.3666 74.929 48.1736 74.4696 48.7791 73.6399L66.3112 48.5274C67.0026 47.5797 67.1034 46.3273 66.5729 45.2836C66.0424 44.2383 64.9698 43.5757 63.794 43.5672L54.7737 43.5516L57.5791 28.8602C57.6386 28.6196 57.6685 28.3728 57.6683 28.125C57.6683 26.4344 56.3221 25.0563 54.6377 25.0016C54.6003 25 54.5635 25 54.5268 25L54.5268 25.0001Z" fill="white"/>
</svg>
