<svg width="100" height="100" viewBox="0 0 100 100" fill="none" xmlns="http://www.w3.org/2000/svg">
<circle cx="50" cy="50" r="50" fill="#222222"/>
<path d="M37.9806 22.2222C38.4963 22.2222 38.9908 22.427 39.3555 22.7917C39.7202 23.1563 39.925 23.6509 39.925 24.1666V27.8027H60.8056V24.1916C60.8056 23.6759 61.0104 23.1813 61.3751 22.8167C61.7397 22.452 62.2343 22.2472 62.75 22.2472C63.2657 22.2472 63.7603 22.452 64.125 22.8167C64.4896 23.1813 64.6945 23.6759 64.6945 24.1916V27.8027H72.2222C73.6952 27.8027 75.1078 28.3877 76.1496 29.4289C77.1914 30.4702 77.7771 31.8826 77.7778 33.3555V72.225C77.7771 73.6979 77.1914 75.1103 76.1496 76.1515C75.1078 77.1928 73.6952 77.7777 72.2222 77.7777H27.7778C26.3048 77.7777 24.8922 77.1928 23.8504 76.1515C22.8086 75.1103 22.223 73.6979 22.2222 72.225V33.3555C22.223 31.8826 22.8086 30.4702 23.8504 29.4289C24.8922 28.3877 26.3048 27.8027 27.7778 27.8027H36.0361V24.1638C36.0369 23.6486 36.242 23.1548 36.6066 22.7907C36.9712 22.4266 37.4654 22.2222 37.9806 22.2222ZM26.1111 43.7277V72.225C26.1111 72.4438 26.1542 72.6605 26.238 72.8628C26.3218 73.065 26.4445 73.2487 26.5993 73.4035C26.754 73.5582 26.9378 73.681 27.14 73.7648C27.3422 73.8485 27.5589 73.8916 27.7778 73.8916H72.2222C72.4411 73.8916 72.6578 73.8485 72.8601 73.7648C73.0623 73.681 73.246 73.5582 73.4008 73.4035C73.5555 73.2487 73.6783 73.065 73.762 72.8628C73.8458 72.6605 73.8889 72.4438 73.8889 72.225V43.7666L26.1111 43.7277ZM40.7417 62.8305V67.4583H36.1111V62.8305H40.7417ZM52.3139 62.8305V67.4583H47.6861V62.8305H52.3139ZM63.8889 62.8305V67.4583H59.2584V62.8305H63.8889ZM40.7417 51.7833V56.4111H36.1111V51.7833H40.7417ZM52.3139 51.7833V56.4111H47.6861V51.7833H52.3139ZM63.8889 51.7833V56.4111H59.2584V51.7833H63.8889ZM36.0361 31.6888H27.7778C27.5589 31.6888 27.3422 31.7319 27.14 31.8157C26.9378 31.8995 26.754 32.0222 26.5993 32.177C26.4445 32.3318 26.3218 32.5155 26.238 32.7177C26.1542 32.9199 26.1111 33.1366 26.1111 33.3555V39.8416L73.8889 39.8805V33.3555C73.8889 33.1366 73.8458 32.9199 73.762 32.7177C73.6783 32.5155 73.5555 32.3318 73.4008 32.177C73.246 32.0222 73.0623 31.8995 72.8601 31.8157C72.6578 31.7319 72.4411 31.6888 72.2222 31.6888H64.6945V34.2694C64.6945 34.7851 64.4896 35.2797 64.125 35.6443C63.7603 36.009 63.2657 36.2138 62.75 36.2138C62.2343 36.2138 61.7397 36.009 61.3751 35.6443C61.0104 35.2797 60.8056 34.7851 60.8056 34.2694V31.6888H39.925V34.2444C39.925 34.7601 39.7202 35.2547 39.3555 35.6193C38.9908 35.984 38.4963 36.1888 37.9806 36.1888C37.4649 36.1888 36.9703 35.984 36.6056 35.6193C36.241 35.2547 36.0361 34.7601 36.0361 34.2444V31.6888Z" fill="white"/>
</svg>
